<?xml version="1.0" encoding="UTF-8"?>
<svg id="Layer_2" data-name="Layer 2" xmlns="http://www.w3.org/2000/svg" viewBox="0 0 141.16 190.58">
  <defs>
    <style>
      .cls-1 {
        fill: none;
        stroke: #000;
        stroke-linecap: round;
        stroke-linejoin: round;
        stroke-width: 2px;
      }
    </style>
  </defs>
  <g id="Layer_1-2" data-name="Layer 1">
    <g>
      <path class="cls-1" d="M110.91,45.98c1.69-7.91.19-16.64,6.64-22.69-3.09-6.16-8.04-7.6-14.24-9.07-.97,6.13-2.71,12.19-2.77,18.26-.29,29.66-.05,59.33-.18,89-.04,9.83-.46,19.68-1,29.5-.48,8.77.62,17.24,3.55,25.5"/>
      <path class="cls-1" d="M3.41,46.98c2.87-.2,4.31.15,4.15,4.01-.56,13.32-.55,26.66-.63,39.99-.08,13.5-.06,27,0,40.5.02,3.83.38,7.65.59,11.5H2.91"/>
      <path class="cls-1" d="M51.41,40.48v88c6.51,2.2,11.29.09,17-3.06,0-12.77-.04-26.11.02-39.45.02-4.33.41-8.67.46-13,.08-7.67-.52-8.9-7.52-10.85-2.74-.76-5.96.18-8.96.35"/>
      <path class="cls-1" d="M113.41,159.98h25.5c0,6.33,0,11.67,0,17,0,2.7-1.5,3.59-4,3.51-11.67-.36-23.33-.79-35-.95-3.99-.05-7.99.71-12,.91-3.33.16-6.68.03-11,.03v-54.5"/>
      <path class="cls-1" d="M113.41,31.48h26.75V11.48h-38.25"/>
      <path class="cls-1" d="M7.41,47.48c8.23-6.44,18.34-7.88,28.77-10.98.28,1.91.75,3.46.69,4.98-.61,15.84-1.54,31.66-1.89,47.5-.33,14.66-.28,29.34.02,44,.14,7.01,1.24,14,1.91,21"/>
      <path class="cls-1" d="M111.91,129.98c1.21-.24,2.41-.48,3.75-.75v-62.67c-3.87-5.14-10.36-8.07-9.07-15.58,1.57-1.27,2.94-2.38,4.32-3.5"/>
      <path class="cls-1" d="M42.41,38.48c-.5,7-1.21,13.99-1.45,21-.48,14.16-1.05,28.33-.95,42.5.1,15.34.87,30.67,1.44,46,.1,2.68.58,5.34.98,8,.59,3.92,3.22,6.21,6.48,8.01,1.37.76,2.67,1.65,4.01,2.49"/>
      <path class="cls-1" d="M112.41,64.98c-.33,6.17-.92,12.33-.95,18.5-.12,22.33,0,44.67-.08,67-.02,5.58.36,10.9,3.98,15.55.64.82.47,2.27.71,3.67-1.9,3.67-5.34,5.19-9.14,6.31-2.22.66-4.34,1.63-6.51,2.47"/>
      <path class="cls-1" d="M42.41,22.98c-1-.17-2.23-.8-2.96-.43-8.06,4.05-16.05,8.23-24,12.49-.55.29-.6,1.51-.54,1.36-3.82,2.39-7.83,3.9-10.27,6.76-1.92,2.24-2.53,6.13-2.61,9.32-.54,19.83-.99,39.66-1.01,59.5-.01,10,1.33,20,1.27,30-.04,7.07,5.26,8.77,9.71,10.85,6.9,3.23,14.24,5.54,21.45,8.11,1.73.62,3.65.71,5.48,1.04"/>
      <path class="cls-1" d="M41.41,167.98c-2.24,1.02-4.47,2.03-7.62,3.46.38,4.93.13,9.89,1.29,14.5,1.24,4.92,5.75,3.36,10.17,3.57.41-5.14.79-9.83,1.16-14.53"/>
      <path class="cls-1" d="M15.41,36.98c6.33-2.33,12.67-4.67,19-7,1.83-.67,3.69-1.28,5.49-2.02.89-.37,2.26-.83,2.42-1.5,1.76-7.11,6.42-13.6,4.61-21.48-.57-2.48-1.86-4.07-4.52-3.97-3.35.13-6.26,1.62-6.88,4.99-.69,3.74-.78,7.67-.45,11.46.12,1.42,2.16,2.68,3.33,4.01"/>
      <path class="cls-1" d="M80.91,105.98v41"/>
      <path class="cls-1" d="M77.91,70.98v32"/>
      <path class="cls-1" d="M58.91,14.98c12.21,6.83,12.97,29.08,4.08,38.47-1.33-3.71-2.46-6.84-3.58-9.97"/>
      <path class="cls-1" d="M7.41,143.98c8.91,4.93,18.23,8.66,28.5,9.5"/>
      <path class="cls-1" d="M12.41,153.48c5.87,5.9,13.58,8.42,20.98,11.56,1.83.78,3.36,2.28,5.02,3.44"/>
      <path class="cls-1" d="M100.91,11.98c-7.32-.58-14.65-1.15-22.32-1.76-.58,13.41-1.13,26.09-1.68,38.76"/>
      <path class="cls-1" d="M53.91,176.98c7.23,4.06,14.81,5.75,23,3.5"/>
      <path class="cls-1" d="M77.91,10.48c-7.47-1.17-14.63-.56-21.54,2.91-2.73,1.37-5.96,1.75-8.96,2.59"/>
      <path class="cls-1" d="M66.91,146.98c2.14,7.51,1.14,14.81-1.5,22"/>
      <path class="cls-1" d="M82.41,10.98c-.17,7.33-.33,14.67-.5,22"/>
      <path class="cls-1" d="M66.91,145.98c-1.03-2.64-2.05-5.27-3.28-8.44-4.15,3.23-5.09,6.56-4.72,10.44"/>
      <path class="cls-1" d="M54.91,14.98c-1.75,6.99,1.83,13.31,2.49,20,.22,2.16.34,4.33.51,6.5"/>
      <path class="cls-1" d="M75.91,144.48c-6.22,1.46-12.44,2.92-18.59,4.36-1.48,9.59-2.87,18.55-4.27,27.62-5.93-.17-9.75-3.66-11.24-9.95-.94-3.97-2.9-7.69-4.4-11.52"/>
      <path class="cls-1" d="M51.41,128.98c-.17,9.83-.31,19.67-.52,29.5-.04,1.84-.32,3.67-.48,5.5"/>
      <path class="cls-1" d="M54.91,23.98c-3.32,2.01-6.65,4.03-10.03,6.08-.97,2.26-1.97,4.59-2.97,6.92"/>
      <path class="cls-1" d="M51.41,26.98c-.17,4.17-.33,8.33-.5,12.5"/>
      <path class="cls-1" d="M107.91,49.48c.36-1.27.73-2.54,1.09-3.81.51,0,1.01,0,1.52,0,1.5,3,2.99,6,4.54,9.12-1.61,2.01-2.88,3.6-4.15,5.19"/>
      <path class="cls-1" d="M80.91,166.98c.33,3.67.67,7.33,1,11"/>
      <path class="cls-1" d="M77.41,19.98l-10.5,1.5"/>
      <path class="cls-1" d="M40.41,28.48c-1.33,3-2.67,6-4,9"/>
      <path class="cls-1" d="M54.91,166.98c2.83,1,5.67,2,8.5,3"/>
      <path class="cls-1" d="M63.91,21.48c-2.83.83-5.67,1.67-8.5,2.5"/>
      <path class="cls-1" d="M38.91,36.48c9.5,2.83,19,5.67,28.5,8.5"/>
      <path class="cls-1" d="M68.91,44.98l7.5,1.5"/>
      <path class="cls-1" d="M70.91,169.98h-6.14c-2.07,1.51-4.46,3.25-6.86,5"/>
      <path class="cls-1" d="M56.41,149.98c-1.67.17-3.33.33-5,.5"/>
      <path class="cls-1" d="M77.91,50.98v5"/>
      <path class="cls-1" d="M50.41,150.98c-1.5.33-3,.67-4.5,1"/>
      <path class="cls-1" d="M41.91,153.48c-1.67.17-3.33.33-5,.5"/>
      <path class="cls-1" d="M80.91,148.98v4"/>
    </g>
  </g>
</svg>