<?xml version="1.0" encoding="UTF-8"?>
<svg id="Layer_2" data-name="Layer 2" xmlns="http://www.w3.org/2000/svg" viewBox="0 0 190.58 141.16">
  <defs>
    <style>
      .cls-1 {
        fill: none;
        stroke: #000;
        stroke-linecap: round;
        stroke-linejoin: round;
        stroke-width: 2px;
      }
    </style>
  </defs>
  <g id="Layer_1-2" data-name="Layer 1">
    <g>
      <path class="cls-1" d="M144.6,110.91c7.91,1.69,16.64.19,22.69,6.64,6.16-3.09,7.6-8.04,9.07-14.24-6.13-.97-12.19-2.71-18.26-2.77-29.66-.29-59.33-.05-89-.18-9.83-.04-19.68-.46-29.5-1-8.77-.48-17.24.62-25.5,3.55"/>
      <path class="cls-1" d="M143.6,3.41c.2,2.87-.15,4.31-4.01,4.15-13.32-.56-26.66-.55-39.99-.63-13.5-.08-27-.06-40.5,0-3.83.02-7.65.38-11.5.59V2.91"/>
      <path class="cls-1" d="M150.1,51.41H62.1c-2.2,6.51-.09,11.29,3.06,17,12.77,0,26.11-.04,39.45.02,4.33.02,8.67.41,13,.46,7.67.08,8.9-.52,10.85-7.52.76-2.74-.18-5.96-.35-8.96"/>
      <path class="cls-1" d="M30.6,113.41v25.5c-6.33,0-11.67,0-17,0-2.7,0-3.59-1.5-3.51-4,.36-11.67.79-23.33.95-35,.05-3.99-.71-7.99-.91-12-.16-3.33-.03-6.68-.03-11h54.5"/>
      <path class="cls-1" d="M159.1,113.41v26.75h20v-38.25"/>
      <path class="cls-1" d="M143.1,7.41c6.44,8.23,7.88,18.34,10.98,28.77-1.91.28-3.46.75-4.98.69-15.84-.61-31.66-1.54-47.5-1.89-14.66-.33-29.34-.28-44,.02-7.01.14-14,1.24-21,1.91"/>
      <path class="cls-1" d="M60.6,111.91c.24,1.21.48,2.41.75,3.75h62.67c5.14-3.87,8.07-10.36,15.58-9.07,1.27,1.57,2.38,2.94,3.5,4.32"/>
      <path class="cls-1" d="M152.1,42.41c-7-.5-13.99-1.21-21-1.45-14.16-.48-28.33-1.05-42.5-.95-15.34.1-30.67.87-46,1.44-2.68.1-5.34.58-8,.98-3.92.59-6.21,3.22-8.01,6.48-.76,1.37-1.65,2.67-2.49,4.01"/>
      <path class="cls-1" d="M125.6,112.41c-6.17-.33-12.33-.92-18.5-.95-22.33-.12-44.67,0-67-.08-5.58-.02-10.9.36-15.55,3.98-.82.64-2.27.47-3.67.71-3.67-1.9-5.19-5.34-6.31-9.14-.66-2.22-1.63-4.34-2.47-6.51"/>
      <path class="cls-1" d="M167.6,42.41c.17-1,.8-2.23.43-2.96-4.05-8.06-8.23-16.05-12.49-24-.29-.55-1.51-.6-1.36-.54-2.39-3.82-3.9-7.83-6.76-10.27-2.24-1.92-6.13-2.53-9.32-2.61-19.83-.54-39.66-.99-59.5-1.01-10-.01-20,1.33-30,1.27-7.07-.04-8.77,5.26-10.85,9.71-3.23,6.9-5.54,14.24-8.11,21.45-.62,1.73-.71,3.65-1.04,5.48"/>
      <path class="cls-1" d="M22.6,41.41c-1.02-2.24-2.03-4.47-3.46-7.62-4.93.38-9.89.13-14.5,1.29-4.92,1.24-3.36,5.75-3.57,10.17,5.14.41,9.83.79,14.53,1.16"/>
      <path class="cls-1" d="M153.6,15.41c2.33,6.33,4.67,12.67,7,19,.67,1.83,1.28,3.69,2.02,5.49.37.89.83,2.26,1.5,2.42,7.11,1.76,13.6,6.42,21.48,4.61,2.48-.57,4.07-1.86,3.97-4.52-.13-3.35-1.62-6.26-4.99-6.88-3.74-.69-7.67-.78-11.46-.45-1.42.12-2.68,2.16-4.01,3.33"/>
      <path class="cls-1" d="M84.6,80.91h-41"/>
      <path class="cls-1" d="M119.6,77.91h-32"/>
      <path class="cls-1" d="M175.6,58.91c-6.83,12.21-29.08,12.97-38.47,4.08,3.71-1.33,6.84-2.46,9.97-3.58"/>
      <path class="cls-1" d="M46.6,7.41c-4.93,8.91-8.66,18.23-9.5,28.5"/>
      <path class="cls-1" d="M37.1,12.41c-5.9,5.87-8.42,13.58-11.56,20.98-.78,1.83-2.28,3.36-3.44,5.02"/>
      <path class="cls-1" d="M178.6,100.91c.58-7.32,1.15-14.65,1.76-22.32-13.41-.58-26.09-1.13-38.76-1.68"/>
      <path class="cls-1" d="M13.6,53.91c-4.06,7.23-5.75,14.81-3.5,23"/>
      <path class="cls-1" d="M180.1,77.91c1.17-7.47.56-14.63-2.91-21.54-1.37-2.73-1.75-5.96-2.59-8.96"/>
      <path class="cls-1" d="M43.6,66.91c-7.51,2.14-14.81,1.14-22-1.5"/>
      <path class="cls-1" d="M179.6,82.41c-7.33-.17-14.67-.33-22-.5"/>
      <path class="cls-1" d="M44.6,66.91c2.64-1.03,5.27-2.05,8.44-3.28-3.23-4.15-6.56-5.09-10.44-4.72"/>
      <path class="cls-1" d="M175.6,54.91c-6.99-1.75-13.31,1.83-20,2.49-2.16.22-4.33.34-6.5.51"/>
      <path class="cls-1" d="M46.1,75.91c-1.46-6.22-2.92-12.44-4.36-18.59-9.59-1.48-18.55-2.87-27.62-4.27.17-5.93,3.66-9.75,9.95-11.24,3.97-.94,7.69-2.9,11.52-4.4"/>
      <path class="cls-1" d="M61.6,51.41c-9.83-.17-19.67-.31-29.5-.52-1.84-.04-3.67-.32-5.5-.48"/>
      <path class="cls-1" d="M166.6,54.91c-2.01-3.32-4.03-6.65-6.08-10.03-2.26-.97-4.59-1.97-6.92-2.97"/>
      <path class="cls-1" d="M163.6,51.41c-4.17-.17-8.33-.33-12.5-.5"/>
      <path class="cls-1" d="M141.1,107.91c1.27.36,2.54.73,3.81,1.09,0,.51,0,1.01,0,1.52-3,1.5-6,2.99-9.12,4.54-2.01-1.61-3.6-2.88-5.19-4.15"/>
      <path class="cls-1" d="M23.6,80.91c-3.67.33-7.33.67-11,1"/>
      <path class="cls-1" d="M170.6,77.41l-1.5-10.5"/>
      <path class="cls-1" d="M162.1,40.41c-3-1.33-6-2.67-9-4"/>
      <path class="cls-1" d="M23.6,54.91c-1,2.83-2,5.67-3,8.5"/>
      <path class="cls-1" d="M169.1,63.91c-.83-2.83-1.67-5.67-2.5-8.5"/>
      <path class="cls-1" d="M154.1,38.91c-2.83,9.5-5.67,19-8.5,28.5"/>
      <path class="cls-1" d="M145.6,68.91l-1.5,7.5"/>
      <path class="cls-1" d="M20.6,70.91v-6.14c-1.51-2.07-3.25-4.46-5-6.86"/>
      <path class="cls-1" d="M40.6,56.41c-.17-1.67-.33-3.33-.5-5"/>
      <path class="cls-1" d="M139.6,77.91h-5"/>
      <path class="cls-1" d="M39.6,50.41c-.33-1.5-.67-3-1-4.5"/>
      <path class="cls-1" d="M37.1,41.91c-.17-1.67-.33-3.33-.5-5"/>
      <path class="cls-1" d="M41.6,80.91h-4"/>
    </g>
  </g>
</svg>