<?xml version="1.0" encoding="UTF-8"?>
<svg id="Layer_2" data-name="Layer 2" xmlns="http://www.w3.org/2000/svg" viewBox="0 0 190.08 144.66">
  <defs>
    <style>
      .cls-1 {
        fill: none;
        stroke: #000;
        stroke-linecap: round;
        stroke-linejoin: round;
        stroke-width: 2px;
      }
    </style>
  </defs>
  <g id="Layer_1-2" data-name="Layer 1">
    <g>
      <path class="cls-1" d="M11.12,108.41c1.63,4.9,3.26,9.8,5.1,15.31,4.2.24,8.12,1.05,11.89.59,19.99-2.43,40-1.24,60.01-.96,18,.26,36.01-.32,53.99.27,5.95.19,12.42-1.49,18.01,2.29"/>
      <path class="cls-1" d="M68.62,108.91c-1.01.32-2.01.63-3.02.95-.15.33-.31.66-.46,1,1.83.85,3.58,2.22,5.49,2.47,15.63,2.06,31.31,2.16,46.98.48,2.06-.22,5.48.6,5.54-3.97-1.32-.14-2.68-.4-4.03-.42-16-.19-32-.36-48-.5-.67,0-1.33.31-2,.48"/>
      <path class="cls-1" d="M45.62,8.91c5.67.17,11.33.49,17,.46,9-.03,18-.4,27-.43,6.33-.02,12.67.29,19,.47,11.33.32,22.67.68,34,.97,1.16.03,2.33-.31,3.5-.47"/>
      <path class="cls-1" d="M26.62,44.41c2.33-6,4.18-12.25,7.12-17.94,3.84-7.42,8.3-14.56,13.05-21.45,1.22-1.77,4.48-2.92,6.84-2.99,19.33-.56,38.66-.99,58-1.04,8.67-.02,17.33.93,26,1.4,3.23.17,5.23,1.73,7.08,4.46,6.65,9.82,12.62,19.97,16.94,31.05.85,2.17.95,5.17,4.47,5.01"/>
      <path class="cls-1" d="M45.62,46.91c9.67-.5,19.33-1.35,29-1.42,16.83-.12,33.67.08,50.5.5,7.01.17,14,1.25,21,1.92"/>
      <path class="cls-1" d="M11.12,64.91c-2.9.9-2.57,3.26-2.5,5.5.33,11.17.92,22.33.93,33.5,0,10.33-.64,20.67-.89,31-.06,2.34.35,4.69.57,7.25,6.38.49,12.37.94,19.45,1.48.34-6.84.65-13.04.95-19.23"/>
      <path class="cls-1" d="M179.12,110.41c-.83,1.83-1.9,3.6-2.46,5.51-2.42,8.25-3.92,9.45-12.54,9.49-1.17,0-2.34,0-3.75,0v18.25h19.13c.34-2.33,1.09-5.05,1.05-7.75-.15-8.84-.65-17.67-.91-26.5-.13-4.5-.02-9-.02-13.5"/>
      <path class="cls-1" d="M24.12,48.91c.75-.56,1.5-1.12,1.86-1.4,6.15-.39,12.13-.77,17.78-1.12,4.02,6.02,7.73,11.49,11.34,17.03,2.57,3.94,4.99,7.78,4.73,13-.12,2.44,1.98,5.07,3.31,7.47,1.73,3.11,4.84,1.94,7.47,2,16.33.37,32.67.73,49,1,6.24.1,8.87-2.37,10-8.98,8.92-5.54,21.95-8.53,31.1-6.89-.36,4.25-.73,8.57-1.1,12.89"/>
      <path class="cls-1" d="M74.62,91.41c12.67.33,25.33.92,38,.87,4.67-.02,9.34-1.51,14-2.39.87-.16,1.98-.4,2.45-1.01,3.49-4.56,8.43-3.3,13.05-3.48,6.84-.27,13.67-.65,20.5-.98"/>
      <path class="cls-1" d="M10.12,94.91c6,.67,11.99,1.68,18,1.93,13.49.56,27,.74,40.5,1.07"/>
      <path class="cls-1" d="M119.12,93.41c.73,3.19,1.74,4.89,6.01,4.69,14.81-.67,29.66-.43,44.49-.77,3.36-.08,6.7-1.11,10.59-1.79.31-3.25.65-6.44.9-9.63.22-2.83.39-5.66.5-8.5.32-8.02-2.3-15.33-5.49-22.5"/>
      <path class="cls-1" d="M22.12,41.41c-1.5-1.83-2.84-5.04-4.53-5.23-4.24-.48-8.86-.33-12.91.93C.33,38.46,0,43.04,2.81,47.43c5.17.52,9.99,1,14.81,1.48"/>
      <path class="cls-1" d="M168.62,42.91c1.56-1.93,1.1-5.66,5-5.51,4.95.2,10.35-1.11,14.36,2.66,1.26,1.18,1.14,4.19,1.07,6.34-.11,3.09-2.57,3.01-4.92,3.04-3.5.04-7,.3-10.5.47"/>
      <path class="cls-1" d="M60.62,72.41c15.66-1,31.28-2.67,47.01-.6,4.91.65,9.99,0,14.99.15,2.51.08,5,.62,7.5.96"/>
      <path class="cls-1" d="M30.12,81.91c-.13-12.34-3.71-23.72-9.17-34.84-5.26,4.83-10.09,9.37-9.78,18,2.08,1.91,4.82,4.32,7.42,6.87,1.01.99,1.89,2.21,2.49,3.49,2.52,5.34,7.18,7.9,12.55,8.34,7.12.58,14.32.14,22.4.14,3,5.09,8.32,7.1,14.48,6.47-.37,4.83-.71,9.15-1.11,14.28h49.66c.56-2.42,1.06-4.58,1.56-6.75"/>
      <path class="cls-1" d="M144.62,5.41c6.36,2.71,9.57,8.51,12.34,14.08,4.58,9.21,8.16,18.92,12.16,28.42"/>
      <path class="cls-1" d="M46.12,5.41c-2.17,1.67-4.7,3.02-6.43,5.06-6.98,8.22-10.78,18.23-15.07,27.94"/>
      <path class="cls-1" d="M25.12,67.41c2.84,3.13,6.63,1.5,10,2.02,5.85.92,11.72,1.76,17.48,3.08,2.31.53,4.36,2.23,6.52,3.4"/>
      <path class="cls-1" d="M130.62,76.41c-.87-6.57,3.72-10.99,6.62-15.93,2.63-4.47,6.3-8.33,10-13.07,6.44-.03,13.34.48,20.26,2.71-2.03,6.79-3.81,12.76-5.68,19.02,2.69,1.3,5.24,2.54,7.79,3.77"/>
      <path class="cls-1" d="M39.12,108.91c-2.31-4.4-6.13-3.78-10.23-3.05.11,1.41.21,2.76.4,5.21,3.26-.43,6.05-.8,8.83-1.16"/>
      <path class="cls-1" d="M163.12,83.41c2.17-2.83,4.11-5.88,6.56-8.45,2.92-3.07,6.28-5.72,9.44-8.55"/>
      <path class="cls-1" d="M10.12,81.91c5.83.83,11.66,1.69,17.5,2.47.63.08,1.33-.3,2-.47"/>
      <path class="cls-1" d="M163.62,84.91c5.5-.67,11-1.33,16.5-2"/>
      <path class="cls-1" d="M164.12,69.41c5.26-3.71,7.14-9.69,10-15"/>
      <path class="cls-1" d="M16.62,52.91c2.5,4.67,5,9.33,7.5,14"/>
      <path class="cls-1" d="M167.12,49.91c1.34-1.58,2.76-2.46,4.5-.5,1.33,1.5,2.67,3,4,4.5"/>
      <path class="cls-1" d="M21.12,46.91c.43-3.24,1.44-5.9,5.5-5.5"/>
      <path class="cls-1" d="M21.12,70.91c1.17-.67,2.33-1.33,3.5-2"/>
      <path class="cls-1" d="M59.12,79.91c-.67,1-1.33,2-2,3"/>
      <path class="cls-1" d="M151.12,109.41c4.73,4.07,6.18,3.99,9.5-.5-2.38-4.01-4.7-4.01-9.5,0"/>
    </g>
  </g>
</svg>