<?xml version="1.0" encoding="UTF-8"?>
<svg id="Layer_2" data-name="Layer 2" xmlns="http://www.w3.org/2000/svg" viewBox="0 0 144.66 190.08">
  <defs>
    <style>
      .cls-1 {
        fill: none;
        stroke: #000;
        stroke-linecap: round;
        stroke-linejoin: round;
        stroke-width: 2px;
      }
    </style>
  </defs>
  <g id="Layer_1-2" data-name="Layer 1">
    <g>
      <path class="cls-1" d="M36.25,11.12c-4.9,1.63-9.8,3.26-15.31,5.1-.24,4.2-1.05,8.12-.59,11.89,2.43,19.99,1.24,40,.96,60.01-.26,18,.32,36.01-.27,53.99-.19,5.95,1.49,12.42-2.29,18.01"/>
      <path class="cls-1" d="M35.75,68.62c-.32-1.01-.63-2.01-.95-3.02-.33-.15-.66-.31-1-.46-.85,1.83-2.22,3.58-2.47,5.49-2.06,15.63-2.16,31.31-.48,46.98.22,2.06-.6,5.48,3.97,5.54.14-1.32.4-2.68.42-4.03.19-16,.36-32,.5-48,0-.67-.31-1.33-.48-2"/>
      <path class="cls-1" d="M135.75,45.62c-.17,5.67-.49,11.33-.46,17,.03,9,.4,18,.43,27,.02,6.33-.29,12.67-.47,19-.32,11.33-.68,22.67-.97,34-.03,1.16.31,2.33.47,3.5"/>
      <path class="cls-1" d="M100.25,26.62c6,2.33,12.25,4.18,17.94,7.12,7.42,3.84,14.56,8.3,21.45,13.05,1.77,1.22,2.92,4.48,2.99,6.84.56,19.33.99,38.66,1.04,58,.02,8.67-.93,17.33-1.4,26-.17,3.23-1.73,5.23-4.46,7.08-9.82,6.65-19.97,12.62-31.05,16.94-2.17.85-5.17.95-5.01,4.47"/>
      <path class="cls-1" d="M97.75,45.62c.5,9.67,1.35,19.33,1.42,29,.12,16.83-.08,33.67-.5,50.5-.17,7.01-1.25,14-1.92,21"/>
      <path class="cls-1" d="M79.75,11.12c-.9-2.9-3.26-2.57-5.5-2.5-11.17.33-22.33.92-33.5.93-10.33,0-20.67-.64-31-.89-2.34-.06-4.69.35-7.25.57-.49,6.38-.94,12.37-1.48,19.45,6.84.34,13.04.65,19.23.95"/>
      <path class="cls-1" d="M34.25,179.12c-1.83-.83-3.6-1.9-5.51-2.46-8.25-2.42-9.45-3.92-9.49-12.54,0-1.17,0-2.34,0-3.75H1v19.13c2.33.34,5.05,1.09,7.75,1.05,8.84-.15,17.67-.65,26.5-.91,4.5-.13,9-.02,13.5-.02"/>
      <path class="cls-1" d="M95.75,24.12c.56.75,1.12,1.5,1.4,1.86.39,6.15.77,12.13,1.12,17.78-6.02,4.02-11.49,7.73-17.03,11.34-3.94,2.57-7.78,4.99-13,4.73-2.44-.12-5.07,1.98-7.47,3.31-3.11,1.73-1.94,4.84-2,7.47-.37,16.33-.73,32.67-1,49-.1,6.24,2.37,8.87,8.98,10,5.54,8.92,8.53,21.95,6.89,31.1-4.25-.36-8.57-.73-12.89-1.1"/>
      <path class="cls-1" d="M53.25,74.62c-.33,12.67-.92,25.33-.87,38,.02,4.67,1.51,9.34,2.39,14,.16.87.4,1.98,1.01,2.45,4.56,3.49,3.3,8.43,3.48,13.05.27,6.84.65,13.67.98,20.5"/>
      <path class="cls-1" d="M49.75,10.12c-.67,6-1.68,11.99-1.93,18-.56,13.49-.74,27-1.07,40.5"/>
      <path class="cls-1" d="M51.25,119.12c-3.19.73-4.89,1.74-4.69,6.01.67,14.81.43,29.66.77,44.49.08,3.36,1.11,6.7,1.79,10.59,3.25.31,6.44.65,9.63.9,2.83.22,5.66.39,8.5.5,8.02.32,15.33-2.3,22.5-5.49"/>
      <path class="cls-1" d="M103.25,22.12c1.83-1.5,5.04-2.84,5.23-4.53.48-4.24.33-8.86-.93-12.91-1.35-4.35-5.93-4.67-10.32-1.87-.52,5.17-1,9.99-1.48,14.81"/>
      <path class="cls-1" d="M101.75,168.62c1.93,1.56,5.66,1.1,5.51,5-.2,4.95,1.11,10.35-2.66,14.36-1.18,1.26-4.19,1.14-6.34,1.07-3.09-.11-3.01-2.57-3.04-4.92-.04-3.5-.3-7-.47-10.5"/>
      <path class="cls-1" d="M72.25,60.62c1,15.66,2.67,31.28.6,47.01-.65,4.91,0,9.99-.15,14.99-.08,2.51-.62,5-.96,7.5"/>
      <path class="cls-1" d="M62.75,30.12c12.34-.13,23.72-3.71,34.84-9.17-4.83-5.26-9.37-10.09-18-9.78-1.91,2.08-4.32,4.82-6.87,7.42-.99,1.01-2.21,1.89-3.49,2.49-5.34,2.52-7.9,7.18-8.34,12.55-.58,7.12-.14,14.32-.14,22.4-5.09,3-7.1,8.32-6.47,14.48-4.83-.37-9.15-.71-14.28-1.11v49.66c2.42.56,4.58,1.06,6.75,1.56"/>
      <path class="cls-1" d="M139.25,144.62c-2.71,6.36-8.51,9.57-14.08,12.34-9.21,4.58-18.92,8.16-28.42,12.16"/>
      <path class="cls-1" d="M139.25,46.12c-1.67-2.17-3.02-4.7-5.06-6.43-8.22-6.98-18.23-10.78-27.94-15.07"/>
      <path class="cls-1" d="M77.25,25.12c-3.13,2.84-1.5,6.63-2.02,10-.92,5.85-1.76,11.72-3.08,17.48-.53,2.31-2.23,4.36-3.4,6.52"/>
      <path class="cls-1" d="M68.25,130.62c6.57-.87,10.99,3.72,15.93,6.62,4.47,2.63,8.33,6.3,13.07,10,.03,6.44-.48,13.34-2.71,20.26-6.79-2.03-12.76-3.81-19.02-5.68-1.3,2.69-2.54,5.24-3.77,7.79"/>
      <path class="cls-1" d="M35.75,39.12c4.4-2.31,3.78-6.13,3.05-10.23-1.41.11-2.76.21-5.21.4.43,3.26.8,6.05,1.16,8.83"/>
      <path class="cls-1" d="M61.25,163.12c2.83,2.17,5.88,4.11,8.45,6.56,3.07,2.92,5.72,6.28,8.55,9.44"/>
      <path class="cls-1" d="M62.75,10.12c-.83,5.83-1.69,11.66-2.47,17.5-.08.63.3,1.33.47,2"/>
      <path class="cls-1" d="M59.75,163.62c.67,5.5,1.33,11,2,16.5"/>
      <path class="cls-1" d="M75.25,164.12c3.71,5.26,9.69,7.14,15,10"/>
      <path class="cls-1" d="M91.75,16.62c-4.67,2.5-9.33,5-14,7.5"/>
      <path class="cls-1" d="M94.75,167.12c1.58,1.34,2.46,2.76.5,4.5-1.5,1.33-3,2.67-4.5,4"/>
      <path class="cls-1" d="M97.75,21.12c3.24.43,5.9,1.44,5.5,5.5"/>
      <path class="cls-1" d="M73.75,21.12c.67,1.17,1.33,2.33,2,3.5"/>
      <path class="cls-1" d="M64.75,59.12c-1-.67-2-1.33-3-2"/>
      <path class="cls-1" d="M35.25,151.12c-4.07,4.73-3.99,6.18.5,9.5,4.01-2.38,4.01-4.7,0-9.5"/>
    </g>
  </g>
</svg>