<?xml version="1.0" encoding="UTF-8"?>
<svg id="Layer_2" data-name="Layer 2" xmlns="http://www.w3.org/2000/svg" viewBox="0 0 457.75 146.14">
  <defs>
    <style>
      .cls-1 {
        fill: none;
        stroke: #000;
        stroke-linecap: round;
        stroke-linejoin: round;
        stroke-width: 2px;
      }
    </style>
  </defs>
  <g id="Layer_1-2" data-name="Layer 1">
    <g>
      <path class="cls-1" d="M445.3,77.29c1-.13,2.01-.25,3.91-.49-1.64,9.02-3.26,17.94-5.14,28.33-1.89.53-4.78,1.8-7.77,2.07-8.31.75-16.68.88-24.98,1.7-2.9.29-5.87,1.53-8.48,2.94-21.05,11.35-42.47,21.9-66.06,26.81-11,2.29-22.26,3.71-33.48,4.5-16.8,1.18-33.68,2.36-50.48,1.88-16.35-.47-33.01.09-48.97-4.4-8.9-2.5-17.71-5.85-25.97-9.99-17.06-8.54-33.77-17.8-50.54-26.92-2.57-1.4-4.7-3.61-7.03-5.44"/>
      <path class="cls-1" d="M325.3,27.29c-13.23-4.59-26.97-2.7-40.5-2.92-19.33-.31-38.67-.13-58-.06-10.17.04-20.33.44-30.5.44-9.5,0-19-.43-28.5-.43-10.67,0-21.34.16-32,.55-3.19.12-6.34,1.25-9.5,1.92"/>
      <path class="cls-1" d="M387.3,66.79c7.67.17,15.33.42,23,.48,11.17.08,22.34.02,33.67.02,2.06,6.07.36,11.63-.81,16.97-1.37,6.25-3.78,12.27-5.84,18.71-8.01.42-16.53,1.39-25.02,1.21-14.73-.32-27.43,4.72-39.55,12.54-12.51,8.07-25.98,14.16-40.43,18.17-10.37,2.87-20.82,4.75-31.53,5.39-6.66.4-13.33.68-20,1.01"/>
      <path class="cls-1" d="M90.3,12.79c-12.49,1.73-19.3,11.2-19.44,21-.18,12.72,8.47,20.81,17.97,22.32,11.51,1.84,21.2-3.97,24.94-15.83,4.45-14.09-8.73-29.66-22.47-27.49"/>
      <path class="cls-1" d="M137.3,95.29c11,7.83,21.74,16.07,33.08,23.37,9.26,5.96,19.03,11.28,29.01,15.94,5.5,2.57,11.84,3.81,17.93,4.55,9.77,1.19,19.65,1.47,29.48,2.14"/>
      <path class="cls-1" d="M13.3,60.79c-3.74-1.99-7.48-3.99-12.3-6.55.81-6.69,1.74-14.33,2.57-21.19,2.3-2.54,4.12-4.55,6.57-7.26,13.43-1.77,27.76-3.66,42.03-5.54.57,7.04.57,13.63,1.71,20.02,3.49,19.4,15.17,30.16,34.9,31.99,13.24,1.22,25.21-1.49,33.97-12.49,4.91-6.17,8.13-13.18,9.56-21.2.55.44,1.02.81,1.96,1.56v-2.84"/>
      <path class="cls-1" d="M59.8,27.29c-.45,7.15-.79,14.42,2.56,20.97,9.16,17.88,23.92,22.27,39.35,18.19,16.05-4.24,25.9-18.13,23.96-36.15-1.39-12.92-9.12-22.13-20.94-26.84-12.23-4.88-23.78-2.36-33.97,6.29-5.44,4.62-8.17,10.81-10.97,17.04"/>
      <path class="cls-1" d="M251.8,97.29c-.35-3.48-.7-6.96-1.06-10.6-5.93-.44-12.43-1.12-18.94-1.36-29.16-1.08-58.33-2.03-87.5-3.05-.84-.03-1.67-.32-2.5-.48"/>
      <path class="cls-1" d="M319.8,35.79c-15.33-.17-30.67-.39-46-.49-31-.2-62-.37-93-.5-15.5-.06-31-.01-46.75-.01-.42.83-1.08,2.17-1.75,3.5"/>
      <path class="cls-1" d="M450.8,66.79c7.35-5.07,6.83-11.69,4.09-19.03-1.05-2.8-1.36-5.95-1.52-8.97-.2-3.74-1.72-5.75-5.57-6.02-11-.77-22.01-1.51-33-2.54-5.2-.49-10.34-1.61-14.7-2.31-1.78,6.52-3.23,13.05-5.37,19.35-4.03,11.82-17.61,24.43-34.43,24.21-9.21-.12-17.49-1.73-24.46-7.74-8.1-6.98-13.32-15.85-14.91-26.47-.48-3.21.54-6.65.87-9.98"/>
      <path class="cls-1" d="M340.8,87.79c3.83.33,7.66.85,11.5.97,17.83.57,35.67.85,53.5,1.6,11.18.47,22.34,1.6,33.5,2.43"/>
      <path class="cls-1" d="M393.3,32.29c-.98,8.76-2.96,17.23-9.04,23.96-9.52,10.54-23.04,13.59-35.42,9.41-14-4.73-21.12-15.11-22.62-29.87-1.91-18.68,16.39-35.42,32.59-34.68,17.23.78,29.64,10.32,33.03,27.17.24,1.22.97,2.34,1.47,3.51"/>
      <path class="cls-1" d="M10.8,54.29c1.17,1.33,2.33,2.67,3.5,4-.21.04-.42.08-.64.12.65,3.47,1.3,6.94,1.87,10.01,3.36,4.71,7.73,5.82,12.77,5.4.81-.07,1.82.07,2.47.5,9.87,6.53,21.5,6.88,32.55,8.82,17.4,3.06,34.98,5.11,52.47,7.67,4.52.66,9,1.64,13.5,2.47"/>
      <path class="cls-1" d="M166.8,110.79c8.72,8.55,19.94,13.03,30.54,18.42,11.38,5.78,23.79,7.66,36.46,8.1,6.84.23,13.67.6,20.5,1.02,1.85.11,3.67.63,5.5.97"/>
      <path class="cls-1" d="M403.3,29.29c-1.91,8.35-2.86,16.87-7.41,24.55-9.37,15.79-24.13,24.5-42.56,22.26-15.93-1.93-26.75-11.76-32.89-26.37-1.67-3.98-1.79-8.61-2.63-12.95"/>
      <path class="cls-1" d="M148.8,94.79c6.67.33,13.33.7,20,.99,5,.22,10,.38,15,.5,13.67.35,27.34.5,41,1.04,26.5,1.04,53,2.3,79.5,3.46.33.01.67-.01,1,0,10.67.5,21.33,1.13,32,1.45,7.66.23,15.34.04,23.25.66-12.97,15.39-28.85,26.2-48.27,31.32-16.02,4.23-32.55,4.16-49.55,4.93-1.67-13.31-3.3-26.33-4.93-39.36"/>
      <path class="cls-1" d="M32.8,74.29c8.06-2.84,16.02.1,23.99.59,10.69.66,21.39,1.57,31.99,2.99,17.28,2.33,34.59,3.62,52.01,3.42"/>
      <path class="cls-1" d="M455.8,55.79c-7.33.17-14.67.55-22,.45-11.67-.15-23.33-.62-35-.95"/>
      <path class="cls-1" d="M248.3,36.29c.17,7.5.26,15,.52,22.5.23,6.67.63,13.33.99,20,.12,2.34.33,4.67.49,7"/>
      <path class="cls-1" d="M50.8,49.79c-8,0-16,.07-24-.02-8.17-.08-16.33-.32-24.5-.48"/>
      <path class="cls-1" d="M133.8,40.29c1.52,14.54-14.04,32.66-29.5,35.02-1.19.18-2.34.65-3.5.98"/>
      <path class="cls-1" d="M141.3,35.29c-2.06,11.81-2.2,23.63-.53,35.5.86,6.14,1.31,12.34,2.08,18.49.15,1.21.64,2.69,1.5,3.45,6.84,6.02,13.81,11.89,20.71,17.79,2.59-.48,4.91-.9,7.23-1.33.4.09.81.18,1.21.26.44-3.05.87-6.11,1.31-9.16"/>
      <path class="cls-1" d="M9.8,59.79c-.28,13.59,6.37,22.1,20.5,24.48,8.65,1.45,17.33,2.71,26,4.02,6.83,1.03,13.65,2.12,20.5,2.97,4.47.55,9,.64,13.49,1.06,6.51.6,13,1.32,19.5,1.98.49.05,1.22-.21,1.47.04,5.72,5.68,11.63,2.65,17.53.47"/>
      <path class="cls-1" d="M49.3,32.29c-8.33-.33-16.67-.69-25-.99-5.5-.2-11-.34-16.5-.51"/>
      <path class="cls-1" d="M247.8,98.79c2.5,10.67,5.01,21.33,7.49,32,.54,2.32,1.01,4.67,1.51,7"/>
      <path class="cls-1" d="M51.8,31.79c-2.94-.12-3.19,1.92-2.97,4,1.97,19.15,11.51,32.51,29.97,39.03.9.32,1.67.98,2.51,1.48"/>
      <path class="cls-1" d="M82.3,92.79c2,.67,3.96,1.56,6.01,1.96,8.15,1.6,16.32,3.06,24.5,4.5.78.14,1.66-.29,2.49-.46"/>
      <path class="cls-1" d="M233.8,76.79c-2.4.55-4.8,1.11-7.67,1.77,4.26,4.63,10.31,4.83,15.79,1.15-1.21-4.45-5.41-1.21-7.62-2.92"/>
      <path class="cls-1" d="M339.3,89.29c-2.2,11.23-6.84,21.42-12.97,31.02-2.17,3.39-4.03,6.98-6.03,10.48"/>
      <path class="cls-1" d="M57.8,61.79c-1.17.33-2.35.99-3.5.95-11.5-.42-23-.96-34.5-1.44-1.83-.08-3.67-.01-5.5-.01"/>
      <path class="cls-1" d="M17.3,74.79c3.68,4.75,9.49,4.74,14.5,6.5,2.34.82,4.67,1.66,7,2.5"/>
      <path class="cls-1" d="M96.3,33.29c-.72-2.24-2.65-3.07-4.44-2.36-1.5.6-2.52,2.42-4.14,4.1,2.09,1.49,3.33,2.38,5.51,3.93,1.06-1.79,2.07-3.48,3.07-5.17"/>
      <path class="cls-1" d="M443.3,78.79c-5.25,1.42-10.44,2.93-14.36,7.96,3.76,1.05,7.31,2.05,10.86,3.04"/>
      <path class="cls-1" d="M449.3,76.29c.42-2.97.84-5.94,1.41-10-2.85.67-4.63,1.08-6.41,1.5"/>
      <path class="cls-1" d="M341.8,73.79c-.67,4.83-1.33,9.67-2,14.5"/>
      <path class="cls-1" d="M359.8,38.29c1.58-.92,3.15-1.84,5.46-3.18-2.72-2.72-4.05-4.05-5.29-5.29-5.17,3.68-5.21,3.83-2.17,7.47"/>
      <path class="cls-1" d="M136.3,74.29c-.22.82-.43,1.64-.73,2.75h-6.52c-.23-.7-.56-1.7-1.28-3.86,3.21.23,5.87.42,8.53.61"/>
      <path class="cls-1" d="M41.3,63.79c.3,2.84,5.12,5.14,1,8.5"/>
      <path class="cls-1" d="M139.8,94.29h-10"/>
      <path class="cls-1" d="M131.3,27.29c.67,2,1.33,4,2,6"/>
      <path class="cls-1" d="M402.8,107.29c-2-.17-4-.33-6-.5"/>
      <path class="cls-1" d="M59.3,26.79h-5.5"/>
      <path class="cls-1" d="M156.8,95.79c1.73,2.75,4.27,5.28,2.5,9"/>
      <path class="cls-1" d="M277.8,143.29h-4"/>
      <path class="cls-1" d="M164.3,96.29c-.5.67-1,1.33-1.5,2"/>
      <path class="cls-1" d="M311.8,77.29c-.65,1.08-1.3,2.15-2.57,4.25h15.97c-.6-1.8-.93-2.8-1.41-4.25h-11.5"/>
      <path class="cls-1" d="M356.3,12.29c-8.83,2.15-15.29,6.8-18.04,15.99-4,13.34,6.03,24.84,16.01,27.15,9.42,2.17,16.87-.82,22.38-7.76,5.32-6.69,6.16-15.07,2.5-22.81-4.08-8.64-11.47-13.06-21.35-12.57-.33.02-.67,0-1,0"/>
    </g>
  </g>
</svg>