<?xml version="1.0" encoding="UTF-8"?>
<svg id="Layer_2" data-name="Layer 2" xmlns="http://www.w3.org/2000/svg" viewBox="0 0 463.05 181">
  <defs>
    <style>
      .cls-1 {
        fill: none;
        stroke: #000;
        stroke-linecap: round;
        stroke-linejoin: round;
        stroke-width: 2px;
      }
    </style>
  </defs>
  <g id="Layer_1-2" data-name="Layer 1">
    <g>
      <path class="cls-1" d="M117.57,37.5c-21.17,2.83-42.38,5.39-63.48,8.6-12.72,1.94-25.28,4.9-39.07,7.64-.32,1.29-1.04,3.5-1.42,5.76-3.59,21.16-2.94,42.31-.15,63.51.43,3.29,1.76,4.48,4.62,5,16.34,2.97,32.62,6.28,49.02,8.9,14.1,2.26,28.32,3.78,42.49,5.56,2.65.33,5.33.36,8,.52"/>
      <path class="cls-1" d="M387.07,178.5c6.19,1.68,11.71-1.04,17.53-2.37,8.05-1.85,16.26-3.17,24.48-4.05,15.46-1.66,23.23-11.26,27.53-25.07,3.66-11.75,5.19-23.72,5.03-36.01-.14-11,.64-22.01.35-33-.42-15.34-.19-30.82-5.91-45.5-7.06-18.12-13.84-22.79-34.5-24.5"/>
      <path class="cls-1" d="M137.57,164.5c4.33-1.5,8.6-3.26,13.01-4.45,16.97-4.61,33.89-9.47,51.02-13.39,10.3-2.36,20.92-3.94,31.47-4.48,18.47-.95,36.99-.93,55.49-1.14,13-.15,26-.03,39-.03h5.93c10.57-33.83,10.22-67.17.1-101.14-5.55.24-10.05.65-14.54.61-26-.26-52.01-.4-78-1.04-19.23-.47-37.95-4.61-56.5-9.44-13.69-3.57-27.34-7.29-41-11-2.38-.65-4.69-1.58-7.82-2.65-.97.83-2.72,1.76-3.62,3.22-2.7,4.38-5.74,8.72-7.45,13.5-5.65,15.81-9.77,31.93-10.26,48.95-.45,15.56.21,30.95,4.25,45.98,2.24,8.33,5.57,16.36,8.35,24.54.14.4-.29.99-.46,1.49"/>
      <path class="cls-1" d="M393.07,32c7.42,9.25,11.77,19.82,13.49,31.5,2.16,14.62,2.29,29.24,1.2,44.01-.79,10.76-3.39,20.79-7.72,30.47-6.09,13.61-17.7,20.15-31.5,22.86-9.18,1.8-18.64,2.15-27.97,3.15"/>
      <path class="cls-1" d="M203.07,35.5c-2.67,11.17-5.98,22.23-7.86,33.52-3.38,20.32-2.27,40.57,3.36,60.48,1.51,5.33,3,10.67,4.5,16"/>
      <path class="cls-1" d="M346.07,7.5c4.33.5,8.66,1.15,13,1.47,10.16.76,20.37,1.02,30.49,2.12,11.87,1.29,23.96,1.11,35.52,4.88,6.32,2.06,11.09,4.97,14.79,11.35,6.37,10.97,7.65,22.73,8.61,34.68.93,11.63,1.91,23.36,1.39,34.98-.68,15.37-2.64,30.69-4.45,45.99-.31,2.6-2.6,4.97-3.46,6.52h-48.89"/>
      <path class="cls-1" d="M418.57,10c16.46.62,28.36,12.2,31.81,27.93,2.44,11.16,4.24,22.29,4.55,33.57.4,14.65.25,29.35-.52,43.99-.5,9.54-1.37,19.36-4.13,28.42-3.36,11.01-8,22.13-21.71,24.61-4.02.73-8,1.65-12,2.48"/>
      <path class="cls-1" d="M140.07,9.5c-1.83.17-3.66.44-5.5.48-17.17.36-34.37.15-51.49,1.19-13.88.84-27.68,3.18-41.51,4.8-.8.09-1.66-.3-2.5-.47"/>
      <path class="cls-1" d="M140.57,172c-1.17-.33-2.33-.93-3.5-.96-16.67-.39-33.36-.22-49.99-1.19-14.89-.86-29.91-1.09-44.51-4.83-.63-.16-1.33-.02-1.99-.02"/>
      <path class="cls-1" d="M131.57,163.5c-2.83.5-5.66,1.36-8.5,1.44-23.56.69-47.04-.98-70.5-2.94-6.17-.52-12.33-1-18.5-1.5"/>
      <path class="cls-1" d="M132.07,17c-1.33-.33-2.66-.92-4-.96-24.07-.69-48.07.23-72,2.95-6.82.78-13.66,1.35-20.5,2.02"/>
      <path class="cls-1" d="M410.57,172c-8.03.31-15.69,2.15-23.02,5.46-1.71.77-3.65,1.46-5.48,1.48-33.67.25-67.33.52-101,.53-32.83,0-65.67-.3-98.5-.46-2.17-.01-4.33,0-5.68,0-2.63-3.59-4.98-6.8-7.32-10"/>
      <path class="cls-1" d="M438.07,154.5c-14.58,7.63-30.51,8.84-46.5,10.04-15.51,1.16-31,2.63-46.5,3.98-.68.06-1.33.32-2,.49"/>
      <path class="cls-1" d="M343.57,12c10.83,1,21.68,1.85,32.5,3.04,15.52,1.7,31.06,3.29,46.48,5.65,5.51.85,10.7,3.81,16.03,5.81"/>
      <path class="cls-1" d="M441.57,151c-4.79,11.63-14.96,14.77-26.01,15.93-15.3,1.61-30.67,2.64-45.99,4.11-8.02.77-16,1.96-24,2.96"/>
      <path class="cls-1" d="M415.57,9c-9.89-.46-19.77-.86-28.54-6.43-1.03-.65-2.62-.54-3.96-.54-14.17-.04-28.33.09-42.5-.07-8.17-.09-16.34-.94-24.5-.89-17.83.12-35.67.62-53.5.92-5.5.09-11,.01-16.5.01h-69.76c-1.94,3.47-3.95,7.06-6.47,11.56-2.29-.7-4.53-1.4-6.78-2.05-1.82-.53-3.65-1.37-5.5-1.44-5.16-.2-10.33-.07-15.5-.07"/>
      <path class="cls-1" d="M344.57,8c-5.17-.5-10.32-1.15-15.5-1.46-5.82-.34-11.66-.5-17.5-.52-19.17-.06-38.33.1-57.5-.05-25.33-.21-50.67-.63-76-.99-.34,0-.67-.31-1-.48"/>
      <path class="cls-1" d="M344.07,173.5c-6.33.33-12.66.84-19,.97-13.66.28-27.33.29-41,.56-9.34.19-18.67.66-28,.94-1.16.04-2.33-.31-3.5-.47"/>
      <path class="cls-1" d="M342.07,12.5c-7-.5-13.99-1.24-21-1.45-16.33-.49-32.66-.75-49-1.04-12.67-.22-25.33-.5-38-.48-19.5.03-39,.3-58.5.46"/>
      <path class="cls-1" d="M256.57,146.5c-8,.17-16.04-.11-23.99.62-8.88.82-17.79,2.04-26.48,4.01-11.78,2.67-23.37,6.19-35.02,9.39-3.36.92-6.7,1.91-9.99,3.02-2.05.69-4.01,1.64-6.01,2.47"/>
      <path class="cls-1" d="M156.07,15c2.33,1,4.59,2.25,7.01,2.96,13.47,3.92,26.9,8.08,40.52,11.4,7.98,1.94,16.27,2.87,24.47,3.54,9.63.78,19.32.84,28.99,1.09,15.5.39,31,.78,46.5.96,4.83.05,9.76-.14,14.48-1.04,8.75-1.67,13.79-8.5,19.02-14.89.3-.36.66-.67,1-1"/>
      <path class="cls-1" d="M6.57,40.5c-3.31,7.84-4.39,16.01-4.09,24.5.17,4.65-.54,9.33-.92,14-1.24,15.39-.3,30.71,1.51,46"/>
      <path class="cls-1" d="M257.07,33.5c-1.67-5-3.45-9.96-4.96-15.01-1.02-3.41-2.9-4.56-6.54-4.58-24.17-.16-48.33-.57-72.5-.93-.5,0-1-.31-1.5-.48"/>
      <path class="cls-1" d="M337.57,163.5c-4,.5-7.99,1.3-12,1.45-20.5.78-41,1.4-61.5,2.04-3.33.1-6.66.01-10.54.01-.7,3.23-1.33,6.12-1.96,9"/>
      <path class="cls-1" d="M12.57,51.5c-6.5,5.91-4.89,14.14-5.88,21.52-.9,6.76-1.21,13.66-1.02,20.48.26,9.34,1.23,18.67,1.89,28,.02.33-.14.8.02.98,6.81,7.53,5.71,18.12,10.35,26.59,4.54,8.28,10,15.48,18.7,19.27,4.09,1.78,8.93,1.85,13.43,2.66,4.83.86,9.77,1.31,14.47,2.62,3.82,1.07,7.36,3.15,12.4,5.39h37.63"/>
      <path class="cls-1" d="M251.57,172c-7-.33-14-.9-21-.95-18-.14-36-.05-54-.05"/>
      <path class="cls-1" d="M337.07,20l2.82-1.33c-.08-.51-.17-1.02-.25-1.53-5.19-.38-10.37-.93-15.57-1.12-20.16-.74-40.33-1.38-60.5-2-1.66-.05-3.33.3-5,.47"/>
      <path class="cls-1" d="M362.07,161c-3.83-2-7.47-4.68-11.54-5.86-8.53-2.47-17.35-3.91-25.95-6.19-19.68-5.22-39.64-2.48-59.51-2.48-2.32,0-4.63-.37-6.8-.56-2.54,7.08-4.87,13.58-7.2,20.09"/>
      <path class="cls-1" d="M227.57,168h-58.67c.22-2,.44-4,.67-6"/>
      <path class="cls-1" d="M333.57,140.5c7.17,1.33,14.32,2.72,21.5,3.99,11.66,2.05,23.33,4.01,35,6.01"/>
      <path class="cls-1" d="M388.57,30.5c-8.5,1.5-17,2.97-25.5,4.51-10.01,1.8-20,3.66-30,5.49"/>
      <path class="cls-1" d="M127.07,24.5c-13.03,15.67-15.25,34.88-17.46,54.01-2.51,21.77,1.44,42.86,8.16,63.43,1.45,4.45,5.44,8.09,8.32,12.05.69.94,1.9,1.54,2.44,2.54,5.06,9.33,12.94,12.56,23.02,10.39,4-.86,7.01.47,10.02,2.59"/>
      <path class="cls-1" d="M40.57,10c-17.01,8.19-25.77,22.09-28,40.5"/>
      <path class="cls-1" d="M436.57,31h-44.22c-5.18-2.86-10.43-6.9-16.36-8.76-7.52-2.35-15.57-3.03-23.43-4.2-4.13-.61-8.33-.71-12.85-1.07,1.84-3.25,3.6-6.37,5.36-9.48"/>
      <path class="cls-1" d="M13.07,130c4.48,1.58,4.93,5.88,6.55,9.48,2.66,5.91,4.99,12.12,8.65,17.38,2.82,4.04,7.48,6.79,11.28,10.16.61.54,1.02,1.32,1.52,1.98"/>
      <path class="cls-1" d="M73.57,1.5c-9.21-1.15-17.65,2.78-26.49,4.07-.75.11-1.59,1.14-1.97,1.95-2.35,5.03-6.56,8.13-11.04,10.98-7.41,4.7-10.55,12.29-13.5,20-1.02,2.66-2.12,5.3-2.97,8.01-.8,2.56-2.03,4.33-5.03,3.99"/>
      <path class="cls-1" d="M118.57,2c-11-.33-22-.73-33-.96-3.33-.07-6.67.23-9.99.53-.54.05-1.01.94-1.51,1.44"/>
      <path class="cls-1" d="M362.07,20c-1.67,1-3.22,2.33-5.02,2.94-9.13,3.12-18.3,6.09-27.5,8.98-.66.21-1.64-.6-2.48-.93"/>
      <path class="cls-1" d="M419.57,7c-7.5-1.33-14.99-2.75-22.51-3.95-2.79-.45-5.66-.38-8.49-.55"/>
      <path class="cls-1" d="M73.07,3.5c-8.77,6.05-19.13,5.52-29,7"/>
      <path class="cls-1" d="M163.07,5.5c-14.67-.17-29.33-.27-44-.56-2.34-.05-4.67-.94-7-1.44"/>
      <path class="cls-1" d="M22.57,17.5c-1.5,1.83-2.67,4.17-4.56,5.4-5.58,3.63-7.11,9.62-9.33,15.14-.97,2.41-.74,5.29-1.12,7.96-.28,2.01-.66,4-.99,6"/>
      <path class="cls-1" d="M140.07,175.5c-5.5.17-11.01.19-16.5.55-3.85.25-7.67.95-11.5,1.45"/>
      <path class="cls-1" d="M43.57,170.5c.91,1.55,1.83,3.1,2.86,4.85,7.76,1.56,15.44,3.15,23.15,4.6,1.1.21,2.32-.28,3.49-.45"/>
      <path class="cls-1" d="M6.57,128c.67,3.67,1.33,7.33,2,11,.3,1.61.62,3.22.94,4.82-.57.28-1.15.55-1.72.83,5.43,6.78,10.85,13.56,16.28,20.35"/>
      <path class="cls-1" d="M44.57,7c-3.17.67-6.57.81-9.45,2.1-7.06,3.16-13.6,7.28-19,12.94-.17.18.29.96.46,1.46"/>
      <path class="cls-1" d="M252.57,167.5c-4.5-.17-9-.38-13.5-.49-3.16-.08-6.33-.01-9.5-.01"/>
      <path class="cls-1" d="M13.57,154c1.83,3,2.97,7.11,5.63,8.79,7.35,4.64,14.61,9.77,23.38,11.67.76.16,1.66-.29,2.49-.46"/>
      <path class="cls-1" d="M250.57,14.5c2.48-.23,4.95-.47,7.41-.7,2.52,7.17,4.8,13.68,7.09,20.2"/>
      <path class="cls-1" d="M264.57,147.5c-1.83,6.17-3.67,12.33-5.5,18.5"/>
      <path class="cls-1" d="M4.57,125.5c-3.41,1.49-1.09,4.36-.77,5.95.8,3.97,2.77,7.71,4.27,11.55"/>
      <path class="cls-1" d="M324.57,149.5c.83,1,1.51,2.21,2.53,2.97,5.98,4.44,11.95,8.85,14.97,16.03"/>
      <path class="cls-1" d="M163.07,175.5h-17.5"/>
      <path class="cls-1" d="M165.57,1.5c-5.67-.17-11.33-.33-17-.5"/>
      <path class="cls-1" d="M168.57,168c-1.17,0-2.91-.5-3.41.08-3.25,3.8-7.52,2.86-11.59,2.91-2.67.03-5.33,0-8,0"/>
      <path class="cls-1" d="M137.07,16c4.54-4.12,9.96-2.61,14.98-1.85,3.84.58,6.76-.27,9.52-2.65"/>
      <path class="cls-1" d="M168.57,1c-4.24,1.75-4.99,5.88-6.5,9.5"/>
      <path class="cls-1" d="M136.57,156l4.5,6"/>
      <path class="cls-1" d="M168.57,13.5c.33,2,.67,4,1,6"/>
      <path class="cls-1" d="M162.07,171.5c1.67,2.67,3.33,5.33,5,8"/>
      <path class="cls-1" d="M346.57,3l-1.5,4.5"/>
      <path class="cls-1" d="M4.57,56v4"/>
      <path class="cls-1" d="M251.57,6c.33,1.17.67,2.33,1,3.5"/>
      <path class="cls-1" d="M142.07,168c-.33,1.17-.67,2.33-1,3.5"/>
      <path class="cls-1" d="M140.57,6.5c.5,2.17,1,4.33,1.5,6.5"/>
    </g>
  </g>
</svg>